<svg width="56" height="56" viewBox="0 0 56 56" fill="none" xmlns="http://www.w3.org/2000/svg">
<path d="M15.5578 17.8195C15.3084 20.4795 15.1334 25.187 16.704 27.1907C16.704 27.1907 15.9647 22.0194 22.5928 15.5313C25.2615 12.9195 25.8784 9.36695 24.9465 6.70258C24.4172 5.1932 23.4503 3.94633 22.6103 3.0757C22.1203 2.56383 22.4965 1.71945 23.2097 1.75008C27.5234 1.94258 34.5147 3.14133 37.4853 10.5963C38.789 13.8688 38.8853 17.2507 38.264 20.6895C37.8703 22.8857 36.4703 27.7682 39.664 28.3676C41.9434 28.7963 43.0459 26.9851 43.5403 25.6813C43.7459 25.1388 44.459 25.0032 44.844 25.4363C48.694 29.8157 49.0222 34.9738 48.2259 39.4144C46.6859 47.9982 37.9928 54.2457 29.3565 54.2457C18.5678 54.2457 9.97966 48.0726 7.75278 36.8988C6.85591 32.3882 7.31091 23.4632 14.2672 17.1632C14.7834 16.6907 15.6278 17.1107 15.5578 17.8195Z" fill="url(#paint0_radial_65_1673)"/>
<path d="M33.2984 33.8712C29.3216 28.7525 31.1022 22.9119 32.0778 20.5844C32.2091 20.2781 31.8591 19.9894 31.5834 20.1775C29.8728 21.3412 26.3684 24.08 24.7366 27.9344C22.5272 33.145 22.6847 35.6956 23.9928 38.8106C24.7803 40.6875 23.8659 41.0856 23.4065 41.1556C22.9603 41.2256 22.5491 40.9281 22.2209 40.6175C21.2771 39.7111 20.6045 38.5597 20.2784 37.2925C20.2084 37.0212 19.854 36.9469 19.6922 37.17C18.4672 38.8631 17.8328 41.58 17.8022 43.5006C17.7059 49.4375 22.6103 54.25 28.5428 54.25C36.0197 54.25 41.4665 45.9812 37.1703 39.0687C35.9234 37.0562 34.7509 35.7394 33.2984 33.8712Z" fill="url(#paint1_radial_65_1673)"/>
<defs>
<radialGradient id="paint0_radial_65_1673" cx="0" cy="0" r="1" gradientTransform="matrix(-30.8818 -0.134027 -0.220187 50.6709 27.2197 54.3817)" gradientUnits="userSpaceOnUse">
<stop offset="0.314" stop-color="#FF9800"/>
<stop offset="0.662" stop-color="#FF6D00"/>
<stop offset="0.972" stop-color="#F44336"/>
</radialGradient>
<radialGradient id="paint1_radial_65_1673" cx="0" cy="0" r="1" gradientTransform="matrix(-0.326369 32.3105 24.3161 0.245584 28.954 23.6505)" gradientUnits="userSpaceOnUse">
<stop offset="0.214" stop-color="#FFF176"/>
<stop offset="0.328" stop-color="#FFF27D"/>
<stop offset="0.487" stop-color="#FFF48F"/>
<stop offset="0.672" stop-color="#FFF7AD"/>
<stop offset="0.793" stop-color="#FFF9C4"/>
<stop offset="0.822" stop-color="#FFF8BD" stop-opacity="0.804"/>
<stop offset="0.863" stop-color="#FFF6AB" stop-opacity="0.529"/>
<stop offset="0.91" stop-color="#FFF38D" stop-opacity="0.209"/>
<stop offset="0.941" stop-color="#FFF176" stop-opacity="0"/>
</radialGradient>
</defs>
</svg>
