<svg width="30" height="30" viewBox="0 0 30 30" fill="none" xmlns="http://www.w3.org/2000/svg">
<path d="M4.39371 4.3934C-1.46412 10.2512 -1.46412 19.7488 4.39371 25.6066C10.2519 31.4648 19.7491 31.4644 25.6069 25.6066C31.4651 19.7484 31.4651 10.2516 25.6069 4.3934C19.7491 -1.46443 10.2519 -1.46476 4.39371 4.3934ZM24.302 24.3017C19.1846 29.419 10.8369 29.3981 5.71949 24.2807C0.602141 19.1634 0.602141 10.8365 5.71949 5.71918C10.8368 0.601828 19.1637 0.601849 24.281 5.71918C29.3984 10.8365 29.4193 19.1843 24.302 24.3017ZM18.9778 9.6967L15.0003 13.6742L11.0228 9.6967C10.6569 9.33077 10.0629 9.33077 9.69701 9.6967C9.33108 10.0626 9.33108 10.6566 9.69701 11.0225L13.6745 15L9.69701 18.9775C9.33108 19.3434 9.33108 19.9374 9.69701 20.3033C10.0629 20.6692 10.6569 20.6692 11.0228 20.3033L15.0003 16.3258L18.9778 20.3033C19.3437 20.6692 19.9377 20.6692 20.3036 20.3033C20.6695 19.9374 20.6695 19.3434 20.3036 18.9775L16.3261 15L20.3036 11.0225C20.6695 10.6566 20.6695 10.0626 20.3036 9.6967C19.9377 9.33077 19.3437 9.33077 18.9778 9.6967Z" fill="#71914B"/>
</svg>
